<?xml version="1.0" encoding="utf-8"?>
<!-- Generator: Adobe Illustrator 16.0.4, SVG Export Plug-In . SVG Version: 6.00 Build 0)  -->
<!DOCTYPE svg PUBLIC "-//W3C//DTD SVG 1.1//EN" "http://www.w3.org/Graphics/SVG/1.1/DTD/svg11.dtd">
<svg version="1.1" xmlns="http://www.w3.org/2000/svg" xmlns:xlink="http://www.w3.org/1999/xlink" x="0px" y="0px" width="22px"
	 height="20px" viewBox="0 0 22 20" style="enable-background:new 0 0 22 20;" xml:space="preserve">
<g id="head">
	<path style="fill:#F7B23F;" d="M11,1C5.444,1,1,4.375,1,10c0,5.625,4.444,9,10,9c5.555,0,10-3.375,10-9C21,4.375,16.555,1,11,1z"/>
</g>
<g id="happy_eyes">
	<path style="fill:#231F20;" d="M9.502,5.989C9.394,5.91,9.34,5.784,9.093,5.658c-0.223-0.128-0.489-0.29-0.78-0.356
		C8.024,5.197,7.695,5.187,7.371,5.146L6.913,5.198C6.798,5.204,6.623,5.249,6.46,5.294C6.123,5.37,5.884,5.526,5.679,5.642
		c-0.216,0.104-0.342,0.274-0.45,0.354c-0.101,0.093-0.152,0.15-0.152,0.151C4.971,6.265,4.921,6.434,4.961,6.6
		C5.026,6.87,5.297,7.037,5.568,6.972l0.109-0.026c0,0,0.061-0.014,0.158-0.047c0.098-0.029,0.224-0.096,0.388-0.129
		C6.382,6.715,6.57,6.677,6.728,6.656C6.809,6.637,6.883,6.609,7.033,6.61l0.337-0.016c0.206,0.021,0.42-0.005,0.61,0.055
		c0.205,0.03,0.365,0.063,0.507,0.104C8.62,6.764,8.819,6.874,8.917,6.904c0.111,0.043,0.178,0.063,0.178,0.063
		c0.164,0.046,0.35,0.012,0.487-0.107c0.217-0.188,0.24-0.518,0.052-0.735C9.634,6.125,9.588,6.072,9.502,5.989z M16.893,6.125
		c0,0-0.046-0.053-0.132-0.136c-0.108-0.079-0.162-0.205-0.409-0.331c-0.223-0.128-0.488-0.29-0.779-0.356
		c-0.146-0.043-0.298-0.09-0.458-0.101l-0.241-0.028l-0.122-0.013L14.69,5.153l-0.03-0.003l-0.016-0.001l-0.008-0.001h-0.004
		l-0.064,0.002l-0.396,0.049c-0.115,0.006-0.291,0.051-0.452,0.097c-0.338,0.076-0.576,0.232-0.782,0.347
		c-0.216,0.104-0.342,0.274-0.45,0.354c-0.101,0.093-0.152,0.151-0.152,0.151C12.229,6.265,12.181,6.434,12.22,6.6
		c0.065,0.27,0.337,0.437,0.606,0.372l0.11-0.026c0,0,0.061-0.015,0.157-0.048c0.098-0.029,0.224-0.095,0.388-0.129
		c0.159-0.054,0.347-0.091,0.505-0.112c0.081-0.019,0.155-0.047,0.306-0.046l0.341-0.016l0.002,0h0.005l0.009,0l0.02,0.001
		l0.039,0.002l0.078,0.003l0.155,0.005c0.104-0.006,0.203,0.021,0.299,0.042c0.205,0.03,0.365,0.063,0.508,0.104
		c0.132,0.011,0.33,0.122,0.429,0.152c0.111,0.043,0.178,0.062,0.178,0.062c0.163,0.046,0.35,0.012,0.487-0.107
		C17.059,6.671,17.081,6.342,16.893,6.125z"/>
</g>
<g id="big_smile">
	<path style="fill:#FFFFFF;" d="M17.314,9.473c-0.12-0.097-0.276-0.133-0.429-0.098c-3.477,0.816-8.31,0.816-11.787,0
		C4.95,9.339,4.791,9.376,4.67,9.473C4.55,9.57,4.481,9.718,4.485,9.872c0.074,3.396,2.75,5.767,6.507,5.767
		c3.758,0,6.435-2.371,6.508-5.767C17.503,9.718,17.435,9.57,17.314,9.473z"/>
</g>
</svg>
