<?xml version="1.0" encoding="utf-8"?>
<!-- Generator: Adobe Illustrator 16.0.4, SVG Export Plug-In . SVG Version: 6.00 Build 0)  -->
<!DOCTYPE svg PUBLIC "-//W3C//DTD SVG 1.1//EN" "http://www.w3.org/Graphics/SVG/1.1/DTD/svg11.dtd">
<svg version="1.1" id="Layer_7" xmlns="http://www.w3.org/2000/svg" xmlns:xlink="http://www.w3.org/1999/xlink" x="0px" y="0px"
	 width="25px" height="20px" viewBox="0 0 25 20" style="enable-background:new 0 0 25 20;" xml:space="preserve">
<g>
	<path style="fill:#D6B074;" d="M18.605,1.647c-1.304,0-2.545,0.03-4.009,0.633C13.133,2.882,1.875,9.013,1.081,12.79
		c-0.645,3.062,2.756,4.728,4.469,5.153c3.542,0.881,7.738,0.33,9.972-1.539c1.446-1.211,8.972-9.872,8.453-11.889
		S21.265,1.647,18.605,1.647z"/>
	<path style="opacity:0.3;fill:#705C3D;" d="M3.007,13.121c1.602-2.308,5.678-2.417,8.275-2.588
		c2.817-0.185,5.674-0.963,6.659-2.985c1.212-2.487-0.809-5.255-0.809-5.255l0,0l0.438,1.514l-0.5,1.819l-4.235,2.932
		c0,0-6.726,1.897-6.789,1.897s-2.932,1.396-2.932,1.396S2.754,12.617,3.007,13.121z"/>
	<path style="fill:#705C3D;" d="M17.068,2.051L17.068,2.051c-0.015-0.016-0.058-0.074-0.127-0.041
		c-0.063,0.029-0.035,0.088-0.035,0.088c0.671,1.137,0.505,1.838,0.125,2.763c-0.266,0.644-1.077,2.604-7.959,4.364L9.031,9.236
		c-3.052,0.78-5.462,1.397-6.319,2.888c-0.36,0.628-0.419,1.35-0.178,2.208c0.33,1.173,1.508,2.127,3.315,2.685
		c0.923,0.285,2.018,0.452,3.099,0.452c1.518,0,3.001-0.326,3.935-1.117c0.686-0.58,0.836-1.274,0.41-1.901
		c-0.368-0.54-0.888-0.938-1.577-1.234c-0.857-0.37-1.935-0.453-2.896-0.453c-1.771,0-3.207,0.565-3.207,1.262
		c0,0.694,1.436,1.26,3.207,1.26c1.654,0,2.659-0.408,3.006-0.825c0.357,0.188,0.78,0.961,0.183,1.467
		c-1.237,1.046-3.591,1.253-5.98,0.515c-1.584-0.491-2.645-1.317-2.912-2.271c-0.195-0.694-0.157-1.263,0.116-1.742
		c0.731-1.271,3.149-1.888,5.949-2.604l0.041-0.011c3.078-0.788,7.296-2.133,8.366-4.719C18.015,4.055,17.946,3.216,17.068,2.051z"
		/>
</g>
</svg>
