<?xml version="1.0" encoding="utf-8"?>
<!-- Generator: Adobe Illustrator 16.0.4, SVG Export Plug-In . SVG Version: 6.00 Build 0)  -->
<!DOCTYPE svg PUBLIC "-//W3C//DTD SVG 1.1//EN" "http://www.w3.org/Graphics/SVG/1.1/DTD/svg11.dtd">
<svg version="1.1" xmlns="http://www.w3.org/2000/svg" xmlns:xlink="http://www.w3.org/1999/xlink" x="0px" y="0px" width="22px"
	 height="20px" viewBox="0 0 22 20" style="enable-background:new 0 0 22 20;" xml:space="preserve">
<g id="head">
	<path style="fill:#F7B23F;" d="M11,1C5.444,1,1,4.375,1,10c0,5.625,4.444,9,10,9c5.555,0,10-3.375,10-9C21,4.375,16.555,1,11,1z"/>
</g>
<g id="confused">
	
		<ellipse transform="matrix(0.7071 0.7071 -0.7071 0.7071 9.5883 -8.1482)" style="fill:#231F20;" cx="14.63" cy="7.5" rx="1.75" ry="1.501"/>
	
		<ellipse transform="matrix(-0.7072 0.707 -0.707 -0.7072 17.8853 7.5927)" style="fill:#231F20;" cx="7.37" cy="7.5" rx="1.75" ry="1.499"/>
	
		<rect x="6.293" y="0.026" transform="matrix(0.1484 0.9889 -0.9889 0.1484 7.9509 -4.8526)" style="fill:#231F20;" width="1" height="4.328"/>
	
		<rect x="13.783" y="3.675" transform="matrix(0.9622 0.2724 -0.2724 0.9622 1.7211 -4.0496)" style="fill:#231F20;" width="3.331" height="0.999"/>
</g>
<g id="somber_mouth">
	<path style="fill:#231F20;" d="M12,17h-2c-0.276,0-0.5-0.224-0.5-0.5S9.724,16,10,16h2c0.276,0,0.5,0.224,0.5,0.5S12.276,17,12,17z
		"/>
</g>
</svg>
