<?xml version="1.0" encoding="utf-8"?>
<!-- Generator: Adobe Illustrator 16.0.4, SVG Export Plug-In . SVG Version: 6.00 Build 0)  -->
<!DOCTYPE svg PUBLIC "-//W3C//DTD SVG 1.1//EN" "http://www.w3.org/Graphics/SVG/1.1/DTD/svg11.dtd">
<svg version="1.1" xmlns="http://www.w3.org/2000/svg" xmlns:xlink="http://www.w3.org/1999/xlink" x="0px" y="0px" width="22px"
	 height="20px" viewBox="0 0 22 20" style="enable-background:new 0 0 22 20;" xml:space="preserve">
<g id="head">
	<path style="fill:#F7B23F;" d="M11,1C5.444,1,1,4.375,1,10c0,5.625,4.444,9,10,9c5.555,0,10-3.375,10-9C21,4.375,16.555,1,11,1z"/>
</g>
<g id="Layer_39">
	<polygon style="fill:#FFFFFF;" points="4,6 19,6 19,8 10,8 10,9 7,9 6,9 	"/>
</g>
<g id="deal_with_it">
	<path style="fill:#231F20;" d="M0,7h2V6H0V7z M7,7v1h1V7H7z M2,5v1h1v1h1v1h1v1h1v1h5V9h1V8h1V7l0,0v1h1v1h5V8h1V7h1V5H2z M10,9H9
		V8H8v1H7V8H6V7H5V6h1v1h1V6h1v1h1v1h1V9z M18,8h-1V7h-1v1h-1V7h-1V6h1v1h1V6h1v1h1V8z"/>
</g>
<g id="somber_mouth">
	<path style="fill:#231F20;" d="M12,17h-2c-0.276,0-0.5-0.224-0.5-0.5S9.724,16,10,16h2c0.276,0,0.5,0.224,0.5,0.5S12.276,17,12,17z
		"/>
</g>
</svg>
