<?xml version="1.0" encoding="utf-8"?>
<!-- Generator: Adobe Illustrator 16.0.4, SVG Export Plug-In . SVG Version: 6.00 Build 0)  -->
<!DOCTYPE svg PUBLIC "-//W3C//DTD SVG 1.1//EN" "http://www.w3.org/Graphics/SVG/1.1/DTD/svg11.dtd">
<svg version="1.1" xmlns="http://www.w3.org/2000/svg" xmlns:xlink="http://www.w3.org/1999/xlink" x="0px" y="0px" width="22px"
	 height="20px" viewBox="0 0 22 20" style="enable-background:new 0 0 22 20;" xml:space="preserve">
<g id="head">
	<path style="fill:#F7B23F;" d="M11,1C5.444,1,1,4.375,1,10c0,5.625,4.444,9,10,9c5.555,0,10-3.375,10-9C21,4.375,16.555,1,11,1z"/>
</g>
<g id="very_sad_eyes">
	<g>
		<path style="fill:#231F20;" d="M9.525,5.712c0,0-0.022,0.067-0.071,0.177C9.381,6.003,9.382,6.143,9.194,6.351
			C9.03,6.552,8.835,6.798,8.587,6.968c-0.231,0.21-0.544,0.328-0.84,0.474L7.297,7.557C7.189,7.595,7.003,7.604,6.833,7.614
			C6.484,7.651,6.206,7.583,5.972,7.541c-0.24-0.027-0.415-0.152-0.543-0.193C5.303,7.291,5.236,7.251,5.236,7.251
			c-0.242-0.143-0.322-0.454-0.18-0.695c0.079-0.134,0.21-0.219,0.353-0.243l0.118-0.02c0,0,0.063-0.01,0.166-0.016
			C5.796,6.269,5.938,6.28,6.102,6.252C6.269,6.243,6.458,6.212,6.607,6.17c0.08-0.012,0.153-0.019,0.296-0.068l0.321-0.094
			C7.407,5.917,7.61,5.864,7.772,5.754C7.957,5.664,8.096,5.582,8.218,5.5C8.339,5.448,8.496,5.28,8.579,5.22
			c0.093-0.076,0.152-0.115,0.152-0.115C8.975,4.943,9.303,5.01,9.464,5.254C9.557,5.394,9.574,5.564,9.525,5.712z"/>
	</g>
	<path style="fill:#DBF7FF;" d="M16.641,7.92c0,0,1.187,0.389,1.761,1.207c0.573,0.819-0.042,1.25-0.042,1.25
		s-0.613,0.43-1.188-0.389C16.599,9.168,16.641,7.92,16.641,7.92z"/>
	<path style="fill:#DBF7FF;" d="M4.188,8.573c0,0-1.142,0.504-1.633,1.375C2.065,10.82,2.72,11.187,2.72,11.187
		s0.653,0.368,1.144-0.504C4.353,9.811,4.188,8.573,4.188,8.573z"/>
	<path style="fill:#DBF7FF;" d="M4.287,11.432c0,0-0.705,1.03-0.662,2.029c0.044,0.999,0.794,0.966,0.794,0.966
		s0.749-0.033,0.706-1.031C5.08,12.396,4.287,11.432,4.287,11.432z"/>
	<g>
		<path style="fill:#231F20;" d="M13.269,5.105c0,0,0.059,0.039,0.151,0.115c0.084,0.06,0.24,0.228,0.362,0.279
			c0.121,0.082,0.261,0.164,0.444,0.255c0.162,0.109,0.365,0.162,0.548,0.254l0.321,0.094c0.143,0.049,0.217,0.056,0.297,0.068
			c0.149,0.042,0.338,0.073,0.505,0.082c0.164,0.028,0.307,0.017,0.409,0.025c0.103,0.006,0.166,0.016,0.166,0.016l0.115,0.019
			c0.277,0.045,0.464,0.307,0.419,0.583c-0.025,0.154-0.119,0.281-0.243,0.355c0,0-0.067,0.04-0.192,0.097
			c-0.129,0.041-0.304,0.166-0.544,0.193c-0.233,0.043-0.513,0.111-0.861,0.074c-0.17-0.011-0.356-0.02-0.464-0.057l-0.449-0.115
			c-0.296-0.146-0.608-0.264-0.84-0.474c-0.249-0.17-0.444-0.416-0.607-0.618c-0.188-0.208-0.188-0.348-0.261-0.461
			c-0.049-0.11-0.071-0.177-0.071-0.177c-0.092-0.277,0.059-0.577,0.336-0.668C12.969,4.992,13.138,5.021,13.269,5.105z"/>
	</g>
</g>
<g id="very_sad_mouth">
	<path style="fill:#D63F37;" d="M6,13c0-1,1-2,2-2s2,1,3,1s2-1,3-1s2,1,2,2s-1,2-2,2s-2-1-3-1s-2,1-3,1S6,14,6,13z"/>
</g>
</svg>
