<?xml version="1.0" encoding="utf-8"?>
<!-- Generator: Adobe Illustrator 16.0.4, SVG Export Plug-In . SVG Version: 6.00 Build 0)  -->
<!DOCTYPE svg PUBLIC "-//W3C//DTD SVG 1.1//EN" "http://www.w3.org/Graphics/SVG/1.1/DTD/svg11.dtd">
<svg version="1.1" id="Layer_7" xmlns="http://www.w3.org/2000/svg" xmlns:xlink="http://www.w3.org/1999/xlink" x="0px" y="0px"
	 width="23px" height="20px" viewBox="0 0 23 20" style="enable-background:new 0 0 23 20;" xml:space="preserve">
<path d="M15.5,8C17.433,8,19,6.433,19,4.5S17.433,1,15.5,1C13.566,1,12,2.567,12,4.5S13.566,8,15.5,8z M8,18H3.583l-1.096-4.615
	c-0.064-0.27-0.333-0.44-0.602-0.371c-0.269,0.063-0.435,0.333-0.371,0.602l1.188,5C2.754,18.841,2.956,19,3.188,19H8
	c0.276,0,0.5-0.224,0.5-0.5S8.276,18,8,18z M21.994,16.906c-0.032-4.629-2.317-7.058-2.58-7.32c-0.404-0.403-0.935-0.59-1.462-0.572
	c-0.028-0.003-0.055-0.011-0.083-0.013c-0.451-0.017-0.852,0.148-1.15,0.459L12.358,14H6c-0.829,0-1.5,0.672-1.5,1.5S5.171,17,6,17
	h7c0.126,0,0.246-0.021,0.362-0.049c0.022-0.006,0.043-0.014,0.065-0.021c0.101-0.03,0.195-0.069,0.286-0.119
	c0.014-0.008,0.028-0.01,0.042-0.018l3.891-2.269C17.847,15.194,18,16.007,18,17v1c0,0.553,0.447,1,1,1h2c0.553,0,1-0.447,1-1
	v-1.094H21.994z"/>
</svg>
