<?xml version="1.0" encoding="utf-8"?>
<!-- Generator: Adobe Illustrator 16.0.4, SVG Export Plug-In . SVG Version: 6.00 Build 0)  -->
<!DOCTYPE svg PUBLIC "-//W3C//DTD SVG 1.1//EN" "http://www.w3.org/Graphics/SVG/1.1/DTD/svg11.dtd">
<svg version="1.1" xmlns="http://www.w3.org/2000/svg" xmlns:xlink="http://www.w3.org/1999/xlink" x="0px" y="0px" width="22px"
	 height="20px" viewBox="0 0 22 20" style="enable-background:new 0 0 22 20;" xml:space="preserve">
<g id="Layer_4">
</g>
<g id="head">
	<path style="fill:#E85646;" d="M19.968,5.742c0.273-0.73,0.83-2.862-0.712-5.397L18.7,0.5c0,1.167-0.771,1.946-1.312,2.354
		C15.659,1.65,13.437,1,11,1C8.561,1,6.336,1.651,4.607,2.858C4.065,2.452,3.289,1.671,3.289,0.5L2.732,0.345
		C1.182,2.896,1.754,5.037,2.025,5.754C1.375,6.969,1,8.389,1,10c0,5.625,4.444,9,10,9c5.555,0,10-3.375,10-9
		C21,8.383,20.623,6.96,19.968,5.742z"/>
</g>
<g id="evil_eyes">
</g>
<g id="sad_mouth">
	<path style="fill:#231F20;" d="M6.133,7.737C6.718,8.323,7.749,8.244,8.43,7.561c0.236-0.235,0.389-0.513,0.477-0.798l0.369,0.185
		l0.447-0.895l-4-2L5.276,4.947l1.019,0.509C5.627,6.139,5.552,7.156,6.133,7.737z M13.093,6.763
		c0.088,0.285,0.24,0.562,0.476,0.798c0.684,0.683,1.713,0.763,2.299,0.177c0.581-0.581,0.506-1.598-0.163-2.28l1.02-0.51
		l-0.447-0.895l-4,2l0.447,0.895L13.093,6.763z M17.14,14.099c-1.07-1.784-3.365-2.849-6.14-2.849s-5.069,1.064-6.139,2.849
		c-0.213,0.355-0.098,0.815,0.257,1.029c0.354,0.212,0.815,0.098,1.029-0.258c0.796-1.327,2.61-2.12,4.853-2.12
		c2.242,0,4.057,0.793,4.853,2.12c0.141,0.234,0.39,0.364,0.645,0.364c0.131,0,0.264-0.034,0.385-0.106
		C17.237,14.914,17.353,14.454,17.14,14.099z"/>
</g>
</svg>
