<?xml version="1.0" encoding="utf-8"?>
<!-- Generator: Adobe Illustrator 16.0.4, SVG Export Plug-In . SVG Version: 6.00 Build 0)  -->
<!DOCTYPE svg PUBLIC "-//W3C//DTD SVG 1.1//EN" "http://www.w3.org/Graphics/SVG/1.1/DTD/svg11.dtd">
<svg version="1.1" xmlns="http://www.w3.org/2000/svg" xmlns:xlink="http://www.w3.org/1999/xlink" x="0px" y="0px" width="22px"
	 height="20px" viewBox="0 0 22 20" style="enable-background:new 0 0 22 20;" xml:space="preserve">
<g id="head">
	<path style="fill:#F7B23F;" d="M11,1C5.444,1,1,4.375,1,10c0,5.625,4.444,9,10,9c5.555,0,10-3.375,10-9C21,4.375,16.555,1,11,1z"/>
</g>
<g id="evil_eyes">
	<g>
		<path style="fill:#231F20;" d="M5.276,4.947l1.019,0.509c-0.667,0.683-0.743,1.7-0.162,2.281C6.718,8.323,7.749,8.244,8.43,7.561
			c0.236-0.235,0.389-0.513,0.477-0.798l0.369,0.185l0.447-0.895l-4-2L5.276,4.947z"/>
		<path style="fill:#231F20;" d="M16.724,4.947l-0.447-0.895l-4,2l0.447,0.895l0.369-0.185c0.088,0.285,0.24,0.562,0.476,0.798
			c0.684,0.683,1.713,0.763,2.299,0.177c0.581-0.581,0.506-1.598-0.163-2.28L16.724,4.947z"/>
	</g>
</g>
<g id="big_smile">
	<path style="fill:#FFFFFF;" d="M17.314,9.473c-0.12-0.097-0.276-0.133-0.429-0.098c-3.477,0.816-8.31,0.816-11.787,0
		C4.95,9.339,4.791,9.376,4.67,9.473C4.55,9.57,4.481,9.718,4.485,9.872c0.074,3.396,2.75,5.767,6.507,5.767
		c3.758,0,6.435-2.371,6.508-5.767C17.503,9.718,17.435,9.57,17.314,9.473z"/>
</g>
</svg>
