<?xml version="1.0" encoding="utf-8"?>
<!-- Generator: Adobe Illustrator 16.0.4, SVG Export Plug-In . SVG Version: 6.00 Build 0)  -->
<!DOCTYPE svg PUBLIC "-//W3C//DTD SVG 1.1//EN" "http://www.w3.org/Graphics/SVG/1.1/DTD/svg11.dtd">
<svg version="1.1" xmlns="http://www.w3.org/2000/svg" xmlns:xlink="http://www.w3.org/1999/xlink" x="0px" y="0px" width="25px"
	 height="20px" viewBox="0 0 25 20" style="enable-background:new 0 0 25 20;" xml:space="preserve">
<g id="covr">
	<g>
		<g>
			<path style="fill:#F7B23F;" d="M14,1c-2.966,0-5.606,0.97-7.432,2.722C7.226,3.776,7.84,4.045,8.31,4.517l3.736,3.734
				c0.071-0.378,0.16-0.754,0.271-1.096c0.73-2.261,2.12-2.737,3.16-2.738c1.533,0,2.783,1.25,2.787,2.785v0.05l-0.003,0.05
				c-0.002,0.013-0.103,1.375-0.21,3.443c-0.091,1.754,0.057,2.94,0.164,3.807l0.041,0.329c0.095,0.824,0.08,2.188-0.6,3.576
				C21.381,17.298,24,14.314,24,10C24,4.375,19.555,1,14,1z"/>
		</g>
		<g>
			<path style="fill:#F7B23F;" d="M16.753,10.678c0.109-2.109,0.211-3.473,0.211-3.473c-0.002-0.821-0.668-1.488-1.488-1.488
				c-0.82,0.001-1.482,0.476-1.922,1.837c-0.446,1.38-0.489,3.553-0.489,3.553L7.391,5.436c-0.58-0.582-1.523-0.582-2.103,0
				c-0.582,0.581-0.582,1.522,0,2.104l3.957,3.958c-0.284,0.167-0.557,0.359-0.8,0.603L5.288,8.942c-0.582-0.581-1.524-0.58-2.104,0
				c-0.581,0.582-0.582,1.525,0,2.105l3.156,3.156c-0.243,0.244-0.435,0.516-0.601,0.803l-2.554-2.557
				c-0.581-0.581-1.523-0.58-2.104,0c-0.581,0.582-0.581,1.521,0,2.104L5.526,19h10.2c1.319-1.467,1.332-3.142,1.237-3.971
				C16.862,14.162,16.644,12.787,16.753,10.678z"/>
		</g>
	</g>
</g>
<g id="Layer_9">
	<path style="fill:#231F20;" d="M21.354,8.137c-0.155-0.227-0.464-0.285-0.691-0.13l-0.069,0.047c0,0-0.104,0.071-0.285,0.195
		c-0.185,0.115-0.404,0.336-0.737,0.494c-0.158,0.089-0.33,0.185-0.512,0.287c-0.18,0.103-0.379,0.139-0.568,0.233
		c-0.114,0.049-0.234,0.1-0.366,0.145c-0.023,0.402-0.049,0.848-0.074,1.337c-0.003,0.055-0.001,0.098-0.004,0.151
		c0.043-0.011,0.087-0.023,0.13-0.034c0.243-0.047,0.526-0.176,0.794-0.297c0.262-0.122,0.532-0.232,0.738-0.379
		c0.205-0.148,0.398-0.288,0.577-0.417c0.374-0.235,0.576-0.56,0.765-0.726c0.167-0.188,0.264-0.295,0.264-0.295
		C21.463,8.582,21.485,8.33,21.354,8.137z"/>
</g>
</svg>
