<?xml version="1.0" encoding="utf-8"?>
<!-- Generator: Adobe Illustrator 16.0.4, SVG Export Plug-In . SVG Version: 6.00 Build 0)  -->
<!DOCTYPE svg PUBLIC "-//W3C//DTD SVG 1.1//EN" "http://www.w3.org/Graphics/SVG/1.1/DTD/svg11.dtd">
<svg version="1.1" xmlns="http://www.w3.org/2000/svg" xmlns:xlink="http://www.w3.org/1999/xlink" x="0px" y="0px" width="22px"
	 height="20px" viewBox="0 0 22 20" style="enable-background:new 0 0 22 20;" xml:space="preserve">
<g id="angry_head">
</g>
<g id="Layer_5">
</g>
<g id="Layer_4">
	<path style="fill:#E8BE5F;" d="M21.23,10.856l-1.241-0.104c-0.009-0.47-0.046-0.916-0.104-1.344l1.266-0.228
		c0.271-0.049,0.452-0.309,0.403-0.581c-0.049-0.272-0.304-0.452-0.581-0.404l-1.27,0.229c-0.269-1.125-0.712-2.087-1.307-2.888
		c0.214-1.157,0.467-3.229-0.18-4.349c-0.769-1.33-2.821,0.289-4.139,1.552C13.118,2.483,12.085,2.35,11,2.35
		c-1.086,0-2.12,0.133-3.081,0.391C6.602,1.477,4.548-0.143,3.78,1.188C3.133,2.309,3.387,4.381,3.601,5.539
		c-0.6,0.806-1.044,1.778-1.312,2.913L1.025,8.224c-0.271-0.05-0.532,0.132-0.581,0.404C0.396,8.899,0.576,9.16,0.848,9.208
		L2.11,9.436C2.054,9.864,2.018,10.31,2.009,10.78l-1.241,0.104c-0.275,0.023-0.479,0.265-0.456,0.54
		c0.021,0.261,0.24,0.458,0.498,0.458c0.014,0,0.028,0,0.042-0.002l1.188-0.1c0.045,0.471,0.138,0.918,0.262,1.347L1.21,13.521
		c-0.26,0.094-0.395,0.38-0.301,0.641c0.073,0.203,0.265,0.33,0.47,0.33c0.056,0,0.113-0.01,0.169-0.029l1.095-0.395
		C3.966,16.976,7.19,18.646,11,18.646c3.82,0,7.052-1.68,8.365-4.603l1.084,0.391c0.057,0.02,0.113,0.029,0.17,0.029
		c0.205,0,0.397-0.127,0.471-0.33c0.094-0.261-0.041-0.547-0.301-0.641l-1.084-0.391c0.122-0.429,0.212-0.877,0.255-1.349l1.187,0.1
		c0.015,0.001,0.028,0.002,0.043,0.002c0.257,0,0.476-0.197,0.497-0.458C21.71,11.121,21.506,10.879,21.23,10.856z"/>
</g>
<g id="plain_eyes">
	
		<ellipse transform="matrix(0.7071 0.7071 -0.7071 0.7071 9.6801 -8.1101)" style="fill:#231F20;" cx="14.63" cy="7.63" rx="1.75" ry="1.501"/>
	
		<ellipse transform="matrix(-0.7072 0.707 -0.707 -0.7072 17.9771 7.8144)" style="fill:#231F20;" cx="7.37" cy="7.63" rx="1.75" ry="1.499"/>
</g>
<g id="little_smile">
	<path style="fill:#231F20;" d="M11,15.031c-1.561,0-2.861-0.615-3.479-1.646c-0.213-0.355-0.097-0.816,0.258-1.029
		c0.355-0.213,0.815-0.098,1.029,0.258C9.147,13.18,9.987,13.531,11,13.531c1.013,0,1.852-0.352,2.19-0.917
		c0.213-0.354,0.671-0.471,1.029-0.258c0.355,0.213,0.471,0.674,0.258,1.029C13.859,14.416,12.56,15.031,11,15.031z"/>
</g>
</svg>
