<?xml version="1.0" encoding="utf-8"?>
<!-- Generator: Adobe Illustrator 16.0.4, SVG Export Plug-In . SVG Version: 6.00 Build 0)  -->
<!DOCTYPE svg PUBLIC "-//W3C//DTD SVG 1.1//EN" "http://www.w3.org/Graphics/SVG/1.1/DTD/svg11.dtd">
<svg version="1.1" xmlns="http://www.w3.org/2000/svg" xmlns:xlink="http://www.w3.org/1999/xlink" x="0px" y="0px" width="22px"
	 height="20px" viewBox="0 0 22 20" style="enable-background:new 0 0 22 20;" xml:space="preserve">
<g id="head">
	<path style="fill:#F7B23F;" d="M11,1C5.444,1,1,4.375,1,10c0,5.625,4.444,9,10,9c5.555,0,10-3.375,10-9C21,4.375,16.555,1,11,1z"/>
</g>
<g id="lol_eyes">
	<path style="fill:#231F20;" d="M6.015,8.296l-0.527-0.85c0.948-0.588,1.872-0.851,2.654-0.95L6.546,5.583l0.497-0.868l3.388,1.941
		L10.042,7.57C9.961,7.547,8.069,7.023,6.015,8.296z"/>
	<path style="fill:#231F20;" d="M15.984,8.297c-2.054-1.273-3.947-0.75-4.027-0.727l-0.389-0.914l3.39-1.94l0.496,0.868
		l-1.597,0.914c0.783,0.099,1.707,0.362,2.654,0.95L15.984,8.297z"/>
	<path style="fill:#D4EFF7;" d="M16.023,6.156c0,0,1.114-0.564,2.099-0.392c0.985,0.174,0.854,0.913,0.854,0.913
		s-0.13,0.738-1.115,0.564C16.877,7.068,16.023,6.156,16.023,6.156z"/>
</g>
<g id="big_smile">
	<path style="fill:#FFFFFF;" d="M17.314,9.473c-0.12-0.097-0.276-0.133-0.429-0.098c-3.477,0.816-8.31,0.816-11.787,0
		C4.95,9.339,4.791,9.376,4.67,9.473C4.55,9.57,4.481,9.718,4.485,9.872c0.074,3.396,2.75,5.767,6.507,5.767
		c3.758,0,6.435-2.371,6.508-5.767C17.503,9.718,17.435,9.57,17.314,9.473z"/>
</g>
</svg>
