<?xml version="1.0" encoding="utf-8"?>
<!-- Generator: Adobe Illustrator 16.0.4, SVG Export Plug-In . SVG Version: 6.00 Build 0)  -->
<!DOCTYPE svg PUBLIC "-//W3C//DTD SVG 1.1//EN" "http://www.w3.org/Graphics/SVG/1.1/DTD/svg11.dtd">
<svg version="1.1" xmlns="http://www.w3.org/2000/svg" xmlns:xlink="http://www.w3.org/1999/xlink" x="0px" y="0px" width="22px"
	 height="20px" viewBox="0 0 22 20" style="enable-background:new 0 0 22 20;" xml:space="preserve">
<g id="martini_glass">
	<polygon style="fill:#ADD2E0;" points="3,2 10,10 10,16 6,17 6,18 15,18 15,17 11,16 11,10 18,2 	"/>
</g>
<g id="martini">
	<path style="fill:#E6EBBE;" d="M5.857,4l3.282,3.534c0.749,0.806,1.973,0.806,2.722,0L15.143,4H5.857z"/>
</g>
<g id="olive">
	
		<ellipse transform="matrix(0.7072 0.707 -0.707 0.7072 7.0118 -6.4027)" style="fill:#929C3E;" cx="11.236" cy="5.264" rx="1.6" ry="2"/>
	<circle style="fill:#87341B;" cx="11.5" cy="4.5" r="0.5"/>
</g>
<g id="glow">
	<polygon style="opacity:0.5;fill:#FFFFFF;" points="10.5,9.5 8.167,2 5.5,2 	"/>
	<polygon style="opacity:0.5;fill:#FFFFFF;" points="7.5,17 7.5,18 8.5,18 8.5,17 10.5,16 	"/>
</g>
</svg>
