<?xml version="1.0" encoding="utf-8"?>
<!-- Generator: Adobe Illustrator 16.0.4, SVG Export Plug-In . SVG Version: 6.00 Build 0)  -->
<!DOCTYPE svg PUBLIC "-//W3C//DTD SVG 1.1//EN" "http://www.w3.org/Graphics/SVG/1.1/DTD/svg11.dtd">
<svg version="1.1" id="somber_mouth" xmlns="http://www.w3.org/2000/svg" xmlns:xlink="http://www.w3.org/1999/xlink" x="0px"
	 y="0px" width="22px" height="20px" viewBox="0 0 22 20" style="enable-background:new 0 0 22 20;" xml:space="preserve">
<path style="fill:#F7B23F;" d="M11,1c5.556,0,10,3.375,10,9c0,5.625-4.444,9-10,9c-5.555,0-10-3.375-10-9C1,4.375,5.445,1,11,1z"/>
<ellipse transform="matrix(-0.7072 0.707 -0.707 -0.7072 18.776 9.7427)" style="fill:#FFFFFF;" cx="7.371" cy="8.759" rx="2.624" ry="2.251"/>
<ellipse transform="matrix(0.7072 0.707 -0.707 0.7072 10.1234 -7.925)" style="fill:#FFFFFF;" cx="14.629" cy="8.259" rx="3.5" ry="2.999"/>
<ellipse transform="matrix(-0.7069 0.7073 -0.7073 -0.7069 20.4775 8.5567)" style="fill:#231F20;" cx="8.466" cy="8.521" rx="0.56" ry="0.48"/>
<ellipse transform="matrix(0.7069 0.7073 -0.7073 0.7069 9.9473 -7.0479)" style="fill:#231F20;" cx="13.478" cy="8.478" rx="0.56" ry="0.48"/>
<path style="fill:#231F20;" d="M10,17h2c0.276,0,0.5-0.224,0.5-0.5S12.276,16,12,16h-2c-0.276,0-0.5,0.224-0.5,0.5S9.724,17,10,17z"
	/>
</svg>
