<?xml version="1.0" encoding="utf-8"?>
<!-- Generator: Adobe Illustrator 16.0.4, SVG Export Plug-In . SVG Version: 6.00 Build 0)  -->
<!DOCTYPE svg PUBLIC "-//W3C//DTD SVG 1.1//EN" "http://www.w3.org/Graphics/SVG/1.1/DTD/svg11.dtd">
<svg version="1.1" xmlns="http://www.w3.org/2000/svg" xmlns:xlink="http://www.w3.org/1999/xlink" x="0px" y="0px" width="22px"
	 height="20px" viewBox="0 0 22 20" style="enable-background:new 0 0 22 20;" xml:space="preserve">
<g id="head">
	<path style="fill:#F7B23F;" d="M11,1C5.444,1,1,4.375,1,10c0,5.625,4.444,9,10,9c5.555,0,10-3.375,10-9C21,4.375,16.555,1,11,1z"/>
</g>
<g id="mindblown_eyes">
	
		<ellipse transform="matrix(0.7072 0.707 -0.707 0.7072 10.4764 -7.7785)" style="fill:#FFFFFF;" cx="14.629" cy="8.759" rx="2.624" ry="2.251"/>
	
		<ellipse transform="matrix(-0.7072 0.707 -0.707 -0.7072 18.4225 8.8888)" style="fill:#FFFFFF;" cx="7.371" cy="8.259" rx="3.5" ry="2.999"/>
	
		<ellipse transform="matrix(0.7069 0.7073 -0.7073 0.7069 9.9943 -7.0754)" style="fill:#231F20;" cx="13.534" cy="8.521" rx="0.56" ry="0.48"/>
	
		<ellipse transform="matrix(-0.7073 0.7069 -0.7069 -0.7073 20.5438 8.4507)" style="fill:#231F20;" cx="8.522" cy="8.478" rx="0.56" ry="0.48"/>
</g>
<g id="somber_mouth">
	<path style="fill:#231F20;" d="M12,17h-2c-0.276,0-0.5-0.224-0.5-0.5S9.724,16,10,16h2c0.276,0,0.5,0.224,0.5,0.5S12.276,17,12,17z
		"/>
</g>
</svg>
