<?xml version="1.0" encoding="utf-8"?>
<!-- Generator: Adobe Illustrator 16.0.4, SVG Export Plug-In . SVG Version: 6.00 Build 0)  -->
<!DOCTYPE svg PUBLIC "-//W3C//DTD SVG 1.1//EN" "http://www.w3.org/Graphics/SVG/1.1/DTD/svg11.dtd">
<svg version="1.1" xmlns="http://www.w3.org/2000/svg" xmlns:xlink="http://www.w3.org/1999/xlink" x="0px" y="0px" width="22px"
	 height="20px" viewBox="0 0 22 20" style="enable-background:new 0 0 22 20;" xml:space="preserve">
<g id="angry_head_copy">
	<path style="fill:#57B473;" d="M11,1C5.444,1,1,4.375,1,10c0,5.625,4.444,9,10,9c5.555,0,10-3.375,10-9C21,4.375,16.555,1,11,1z"/>
</g>
<g id="happy_eyes">
	<g>
		<path style="fill:#231F20;" d="M9.095,6.967c0,0-0.067-0.02-0.178-0.063c-0.098-0.03-0.296-0.14-0.429-0.152
			c-0.142-0.04-0.302-0.073-0.507-0.104c-0.19-0.061-0.405-0.035-0.61-0.055L7.033,6.61c-0.15-0.001-0.225,0.027-0.305,0.046
			C6.57,6.677,6.382,6.715,6.223,6.769c-0.164,0.034-0.29,0.1-0.388,0.129C5.738,6.931,5.677,6.945,5.677,6.945L5.568,6.972
			C5.297,7.037,5.026,6.87,4.961,6.6c-0.04-0.166,0.01-0.334,0.115-0.453c0,0,0.051-0.058,0.152-0.151
			c0.108-0.08,0.234-0.25,0.45-0.354C5.884,5.526,6.123,5.37,6.46,5.294c0.162-0.045,0.337-0.091,0.452-0.097l0.458-0.051
			c0.325,0.041,0.653,0.05,0.942,0.155c0.291,0.066,0.557,0.228,0.78,0.356c0.247,0.126,0.3,0.252,0.409,0.331
			c0.086,0.083,0.132,0.136,0.132,0.136C9.822,6.342,9.799,6.671,9.582,6.86C9.444,6.979,9.258,7.013,9.095,6.967z"/>
	</g>
	<g>
		<path style="fill:#231F20;" d="M16.354,6.967c0,0-0.067-0.02-0.179-0.063c-0.098-0.03-0.296-0.14-0.428-0.152
			c-0.143-0.04-0.303-0.073-0.508-0.104c-0.189-0.061-0.404-0.035-0.609-0.055L14.292,6.61c-0.15-0.001-0.225,0.027-0.305,0.046
			c-0.158,0.021-0.347,0.059-0.506,0.112c-0.164,0.034-0.289,0.1-0.388,0.129c-0.097,0.033-0.157,0.047-0.157,0.047l-0.109,0.026
			C12.556,7.037,12.284,6.87,12.22,6.6c-0.039-0.166,0.01-0.334,0.115-0.453c0,0,0.052-0.058,0.152-0.151
			c0.108-0.08,0.234-0.25,0.45-0.354c0.206-0.115,0.444-0.271,0.782-0.347c0.162-0.045,0.337-0.091,0.451-0.097l0.459-0.051
			c0.324,0.041,0.652,0.05,0.941,0.155c0.291,0.066,0.558,0.228,0.781,0.356c0.246,0.126,0.3,0.252,0.408,0.331
			c0.086,0.083,0.132,0.136,0.132,0.136c0.188,0.217,0.165,0.547-0.052,0.735C16.703,6.979,16.517,7.013,16.354,6.967z"/>
	</g>
</g>
<g id="big_smile">
	<path style="fill:#FFFFFF;stroke:#FFFFFF;stroke-linecap:round;stroke-linejoin:round;stroke-miterlimit:10;" d="M10.992,10.499
		c-2.197,0-4.242-0.223-6.007-0.637c0.072,3.3,2.712,5.277,6.007,5.277c3.296,0,5.937-1.978,6.008-5.277
		C15.234,10.276,13.188,10.499,10.992,10.499z"/>
</g>
</svg>
