<?xml version="1.0" encoding="utf-8"?>
<!-- Generator: Adobe Illustrator 16.0.4, SVG Export Plug-In . SVG Version: 6.00 Build 0)  -->
<!DOCTYPE svg PUBLIC "-//W3C//DTD SVG 1.1//EN" "http://www.w3.org/Graphics/SVG/1.1/DTD/svg11.dtd">
<svg version="1.1" xmlns="http://www.w3.org/2000/svg" xmlns:xlink="http://www.w3.org/1999/xlink" x="0px" y="0px" width="22px"
	 height="20px" viewBox="0 0 22 20" style="enable-background:new 0 0 22 20;" xml:space="preserve">
<g id="blush">
	<path style="fill:#F99F71;" d="M11,1C5.444,1,1,4.375,1,10c0,5.625,4.444,9,10,9c5.555,0,10-3.375,10-9C21,4.375,16.555,1,11,1z"/>
</g>
<g id="blushing">
	
		<ellipse transform="matrix(0.7071 0.7072 -0.7072 0.7071 12.4629 -8.6832)" style="fill:#F7483F;" cx="16.712" cy="10.701" rx="2.457" ry="2.107"/>
	
		<ellipse transform="matrix(-0.7071 0.7072 -0.7072 -0.7071 16.5943 14.5276)" style="fill:#F7483F;" cx="5.288" cy="10.701" rx="2.457" ry="2.107"/>
</g>
<g id="sad_eyes">
	<g>
		<path style="fill:#231F20;" d="M14.289,4.879c-0.337,0.02-0.655,0.142-0.896,0.383c-0.586,0.585-0.506,1.615,0.176,2.298
			c0.684,0.683,1.713,0.763,2.299,0.177c0.476-0.476,0.505-1.241,0.137-1.878L14.289,4.879z"/>
		<path style="fill:#231F20;" d="M7.711,4.879L5.995,5.86C5.627,6.497,5.657,7.262,6.133,7.737C6.718,8.323,7.749,8.244,8.43,7.561
			c0.684-0.683,0.764-1.712,0.178-2.298C8.366,5.021,8.048,4.899,7.711,4.879z"/>
	</g>
</g>
<g id="sad_mouth">
	<path style="fill:#231F20;" d="M15.497,15.009c-0.255,0-0.504-0.13-0.645-0.364c-0.616-1.029-2.093-1.669-3.853-1.669
		c-1.759,0-3.236,0.64-3.853,1.669C6.934,15,6.472,15.114,6.118,14.902c-0.355-0.213-0.471-0.674-0.257-1.029
		c0.9-1.501,2.821-2.397,5.139-2.397c2.318,0,4.24,0.896,5.14,2.397c0.213,0.355,0.098,0.816-0.258,1.029
		C15.761,14.975,15.628,15.009,15.497,15.009z"/>
</g>
</svg>
