<?xml version="1.0" encoding="utf-8"?>
<!-- Generator: Adobe Illustrator 16.0.4, SVG Export Plug-In . SVG Version: 6.00 Build 0)  -->
<!DOCTYPE svg PUBLIC "-//W3C//DTD SVG 1.1//EN" "http://www.w3.org/Graphics/SVG/1.1/DTD/svg11.dtd">
<svg version="1.1" xmlns="http://www.w3.org/2000/svg" xmlns:xlink="http://www.w3.org/1999/xlink" x="0px" y="0px" width="22px"
	 height="20px" viewBox="0 0 22 20" style="enable-background:new 0 0 22 20;" xml:space="preserve">
<g id="head">
	<path style="fill:#F7B23F;" d="M11,9C5.444,9,1,12.375,1,18h20C21,12.375,16.555,9,11,9z"/>
</g>
<g id="plain_eyes">
	
		<ellipse transform="matrix(0.7071 0.7071 -0.7071 0.7071 14.538 -6.0979)" style="fill:#231F20;" cx="14.63" cy="14.5" rx="1.75" ry="1.501"/>
	
		<ellipse transform="matrix(-0.7072 0.707 -0.707 -0.7072 22.8345 19.5429)" style="fill:#231F20;" cx="7.37" cy="14.5" rx="1.75" ry="1.499"/>
</g>
<g id="Layer_3">
	<g>
		<g>
			<path style="fill:#231F20;" d="M15.33,3.114c0-0.9-0.342-1.618-1.021-2.141c-0.682-0.524-1.619-0.792-2.823-0.792
				c-1.46,0-2.847,0.377-4.186,1.144l1.119,2.19c1.083-0.572,2.033-0.864,2.848-0.864c0.328,0,0.584,0.074,0.791,0.195
				c0.205,0.134,0.314,0.316,0.314,0.535c0,0.292-0.097,0.535-0.291,0.767c-0.194,0.219-0.499,0.462-0.936,0.742
				c-0.548,0.341-0.937,0.694-1.157,1.059C9.783,6.303,9.673,6.753,9.673,7.276V7.97h2.481V7.556c0-0.23,0.062-0.426,0.206-0.596
				c0.146-0.17,0.5-0.438,1.059-0.803c0.67-0.426,1.157-0.876,1.462-1.351C15.184,4.331,15.33,3.771,15.33,3.114z"/>
		</g>
	</g>
	<circle style="fill:#231F20;" cx="11" cy="10" r="1.5"/>
</g>
</svg>
