<?xml version="1.0" encoding="utf-8"?>
<!-- Generator: Adobe Illustrator 16.0.4, SVG Export Plug-In . SVG Version: 6.00 Build 0)  -->
<!DOCTYPE svg PUBLIC "-//W3C//DTD SVG 1.1//EN" "http://www.w3.org/Graphics/SVG/1.1/DTD/svg11.dtd">
<svg version="1.1" xmlns="http://www.w3.org/2000/svg" xmlns:xlink="http://www.w3.org/1999/xlink" x="0px" y="0px" width="22px"
	 height="20px" viewBox="0 0 22 20" style="enable-background:new 0 0 22 20;" xml:space="preserve">
<g id="head">
	<path style="fill:#F7B23F;" d="M11,1C5.444,1,1,4.375,1,10c0,5.625,4.444,9,10,9c5.555,0,10-3.375,10-9C21,4.375,16.555,1,11,1z"/>
</g>
<g id="rolleyes_2">
	
		<ellipse transform="matrix(0.7072 0.707 -0.707 0.7072 10.1234 -7.925)" style="fill:#FFFFFF;" cx="14.629" cy="8.259" rx="3.5" ry="2.999"/>
	
		<ellipse transform="matrix(-0.7072 0.707 -0.707 -0.7072 18.4225 8.8888)" style="fill:#FFFFFF;" cx="7.371" cy="8.259" rx="3.5" ry="2.999"/>
	
		<ellipse transform="matrix(0.7071 0.7071 -0.7071 0.7071 9.2502 -9.3319)" style="fill:#231F20;" cx="15.89" cy="6.5" rx="1.75" ry="1.501"/>
	
		<ellipse transform="matrix(-0.7072 0.707 -0.707 -0.7072 19.3281 4.9952)" style="fill:#231F20;" cx="8.63" cy="6.5" rx="1.75" ry="1.499"/>
</g>
<g id="little_smile">
	<path style="fill:none;stroke:#231F20;stroke-width:1.5;stroke-linecap:round;stroke-miterlimit:10;" d="M8.165,14.719
		C8.654,15.535,9.733,16,11,16c1.266,0,2.345-0.465,2.834-1.281"/>
</g>
</svg>
