<?xml version="1.0" encoding="utf-8"?>
<!-- Generator: Adobe Illustrator 16.0.4, SVG Export Plug-In . SVG Version: 6.00 Build 0)  -->
<!DOCTYPE svg PUBLIC "-//W3C//DTD SVG 1.1//EN" "http://www.w3.org/Graphics/SVG/1.1/DTD/svg11.dtd">
<svg version="1.1" xmlns="http://www.w3.org/2000/svg" xmlns:xlink="http://www.w3.org/1999/xlink" x="0px" y="0px" width="22px"
	 height="20px" viewBox="0 0 22 20" style="enable-background:new 0 0 22 20;" xml:space="preserve">
<g id="head">
	<path style="fill:#F7B23F;" d="M11,1C5.444,1,1,4.375,1,10c0,5.625,4.444,9,10,9c5.555,0,10-3.375,10-9C21,4.375,16.555,1,11,1z"/>
</g>
<g id="rolleyes_2">
	
		<ellipse transform="matrix(0.7072 0.707 -0.707 0.7072 10.1234 -7.925)" style="fill:#FFFFFF;" cx="14.629" cy="8.259" rx="3.5" ry="2.999"/>
	
		<ellipse transform="matrix(-0.7072 0.707 -0.707 -0.7072 18.4225 8.8888)" style="fill:#FFFFFF;" cx="7.371" cy="8.259" rx="3.5" ry="2.999"/>
	
		<ellipse transform="matrix(0.7071 0.7071 -0.7071 0.7071 8.8812 -8.4411)" style="fill:#231F20;" cx="14.63" cy="6.5" rx="1.75" ry="1.501"/>
	
		<ellipse transform="matrix(-0.7072 0.707 -0.707 -0.7072 17.1782 5.8855)" style="fill:#231F20;" cx="7.37" cy="6.5" rx="1.75" ry="1.499"/>
</g>
<g id="little_smile">
	<path style="fill:#231F20;" d="M11,16.75c-1.561,0-2.861-0.615-3.479-1.646c-0.213-0.355-0.097-0.816,0.258-1.029
		c0.355-0.213,0.815-0.098,1.029,0.258C9.147,14.898,9.987,15.25,11,15.25c1.013,0,1.852-0.352,2.19-0.917
		c0.213-0.354,0.671-0.472,1.029-0.258c0.355,0.213,0.471,0.674,0.258,1.029C13.859,16.135,12.56,16.75,11,16.75z"/>
</g>
</svg>
