<?xml version="1.0" encoding="utf-8"?>
<!-- Generator: Adobe Illustrator 16.0.4, SVG Export Plug-In . SVG Version: 6.00 Build 0)  -->
<!DOCTYPE svg PUBLIC "-//W3C//DTD SVG 1.1//EN" "http://www.w3.org/Graphics/SVG/1.1/DTD/svg11.dtd">
<svg version="1.1" xmlns="http://www.w3.org/2000/svg" xmlns:xlink="http://www.w3.org/1999/xlink" x="0px" y="0px" width="22px"
	 height="20px" viewBox="0 0 22 20" style="enable-background:new 0 0 22 20;" xml:space="preserve">
<g id="head">
	<path style="fill:#F7B23F;" d="M11,1C5.444,1,1,4.375,1,10c0,5.625,4.444,9,10,9c5.555,0,10-3.375,10-9C21,4.375,16.555,1,11,1z"/>
</g>
<g id="sad_eyes">
	<g>
		<path style="fill:#231F20;" d="M7.711,4.879L5.995,5.86C5.627,6.497,5.657,7.262,6.133,7.737C6.718,8.323,7.749,8.244,8.43,7.561
			c0.684-0.683,0.764-1.712,0.178-2.298C8.366,5.021,8.048,4.899,7.711,4.879z"/>
		<path style="fill:#231F20;" d="M14.289,4.879c-0.337,0.02-0.655,0.142-0.896,0.383c-0.586,0.585-0.506,1.615,0.176,2.298
			c0.684,0.683,1.713,0.763,2.299,0.177c0.476-0.476,0.505-1.241,0.137-1.878L14.289,4.879z"/>
	</g>
</g>
<g id="sad_mouth">
	<path style="fill:#231F20;" d="M16.497,14.234c-0.255,0-0.504-0.13-0.645-0.364c-0.796-1.327-2.61-2.12-4.853-2.12
		c-2.243,0-4.057,0.793-4.853,2.12c-0.214,0.355-0.674,0.47-1.029,0.258c-0.355-0.214-0.471-0.674-0.257-1.029
		C5.931,11.315,8.226,10.25,11,10.25s5.069,1.065,6.14,2.849c0.213,0.355,0.098,0.815-0.258,1.029
		C16.761,14.2,16.628,14.234,16.497,14.234z"/>
</g>
</svg>
