<?xml version="1.0" encoding="utf-8"?>
<!-- Generator: Adobe Illustrator 16.0.4, SVG Export Plug-In . SVG Version: 6.00 Build 0)  -->
<!DOCTYPE svg PUBLIC "-//W3C//DTD SVG 1.1//EN" "http://www.w3.org/Graphics/SVG/1.1/DTD/svg11.dtd">
<svg version="1.1" xmlns="http://www.w3.org/2000/svg" xmlns:xlink="http://www.w3.org/1999/xlink" x="0px" y="0px" width="22px"
	 height="20px" viewBox="0 0 22 20" style="enable-background:new 0 0 22 20;" xml:space="preserve">
<g id="head">
	<path style="fill:#F7B23F;" d="M11,1C5.444,1,1,4.375,1,10c0,5.625,4.444,9,10,9c5.555,0,10-3.375,10-9C21,4.375,16.555,1,11,1z"/>
</g>
<g id="plain_eyes">
	
		<ellipse transform="matrix(0.7071 0.7071 -0.7071 0.7071 8.8812 -8.4411)" style="fill:#231F20;" cx="14.63" cy="6.5" rx="1.75" ry="1.501"/>
	
		<ellipse transform="matrix(-0.7072 0.707 -0.707 -0.7072 17.1782 5.8855)" style="fill:#231F20;" cx="7.37" cy="6.5" rx="1.75" ry="1.499"/>
</g>
<g id="plain_smile">
	<path style="fill:#231F20;" d="M11,14.234c-2.774,0-5.069-1.064-6.139-2.849c-0.213-0.355-0.098-0.816,0.257-1.029
		c0.354-0.214,0.815-0.098,1.029,0.257c0.796,1.328,2.61,2.12,4.853,2.12c2.242,0,4.057-0.792,4.853-2.12
		c0.213-0.354,0.672-0.473,1.029-0.257c0.355,0.213,0.471,0.674,0.258,1.029C16.069,13.17,13.774,14.234,11,14.234z"/>
</g>
</svg>
