<?xml version="1.0" encoding="utf-8"?>
<!-- Generator: Adobe Illustrator 16.0.4, SVG Export Plug-In . SVG Version: 6.00 Build 0)  -->
<!DOCTYPE svg PUBLIC "-//W3C//DTD SVG 1.1//EN" "http://www.w3.org/Graphics/SVG/1.1/DTD/svg11.dtd">
<svg version="1.1" xmlns="http://www.w3.org/2000/svg" xmlns:xlink="http://www.w3.org/1999/xlink" x="0px" y="0px" width="22px"
	 height="20px" viewBox="0 0 22 20" style="enable-background:new 0 0 22 20;" xml:space="preserve">
<g id="head">
	<path style="fill:#F7B23F;" d="M11,1C5.444,1,1,4.375,1,10c0,5.625,4.444,9,10,9c5.555,0,10-3.375,10-9C21,4.375,16.555,1,11,1z"/>
</g>
<g id="surprise_v2">
	<path style="fill:#D63F37;" d="M8,16c0-2.209,1.343-4,3-4c1.657,0,3,1.791,3,4"/>
</g>
<g id="Layer_5">
</g>
<g id="surprised_eyebrows_copy">
	
		<ellipse transform="matrix(0.7072 0.707 -0.707 0.7072 9.2331 -8.2938)" style="fill:#FFFFFF;" cx="14.629" cy="7" rx="3.5" ry="2.999"/>
	
		<ellipse transform="matrix(-0.7072 0.707 -0.707 -0.7072 17.5322 6.7389)" style="fill:#FFFFFF;" cx="7.371" cy="7" rx="3.5" ry="2.999"/>
	
		<ellipse transform="matrix(0.7069 0.7073 -0.7073 0.7069 9.2385 -8.296)" style="fill:#231F20;" cx="14.63" cy="7" rx="1.399" ry="1.2"/>
	
		<ellipse transform="matrix(-0.7072 0.707 -0.707 -0.7072 17.5318 6.7394)" style="fill:#231F20;" cx="7.37" cy="7" rx="1.4" ry="1.2"/>
</g>
<g id="Layer_4">
	<g>
		<path style="fill:#231F20;" d="M4.911,1.469c0,0,0.042-0.043,0.116-0.119c0.091-0.075,0.147-0.171,0.361-0.301
			C5.58,0.912,5.825,0.787,6.062,0.701c0.242-0.112,0.516-0.168,0.792-0.224C7.133,0.456,7.412,0.413,7.68,0.439
			c0.266,0,0.519,0.045,0.725,0.125C8.61,0.63,8.769,0.757,8.87,0.837C8.972,0.92,9.02,0.98,9.02,0.98
			c0.185,0.229,0.149,0.565-0.08,0.75c-0.061,0.049-0.129,0.083-0.2,0.101L8.573,1.875c0,0-0.063,0.016-0.154,0.023
			C8.371,1.906,8.32,1.903,8.263,1.899C8.209,1.889,8.14,1.901,8.069,1.896C7.927,1.894,7.773,1.85,7.591,1.841
			C7.415,1.808,7.218,1.836,7.022,1.833C6.833,1.876,6.629,1.868,6.455,1.923C6.259,1.955,6.132,2.016,6.007,2.044
			c-0.118,0.008-0.276,0.13-0.361,0.164C5.55,2.254,5.496,2.28,5.496,2.28C5.244,2.403,4.94,2.299,4.817,2.047
			C4.721,1.85,4.767,1.618,4.911,1.469z"/>
		<path style="fill:#231F20;" d="M16.504,2.28c0,0-0.054-0.026-0.149-0.072c-0.086-0.033-0.244-0.155-0.361-0.164
			c-0.125-0.029-0.253-0.09-0.448-0.122c-0.174-0.055-0.378-0.046-0.567-0.089c-0.195,0.002-0.393-0.025-0.569,0.007
			c-0.182,0.009-0.336,0.053-0.478,0.056c-0.071,0.005-0.141-0.008-0.194,0.002c-0.057,0.005-0.107,0.007-0.155-0.001
			c-0.092-0.007-0.154-0.023-0.154-0.023l-0.165-0.042c-0.285-0.073-0.457-0.364-0.384-0.649c0.02-0.076,0.056-0.145,0.102-0.203
			c0,0,0.048-0.06,0.15-0.143c0.101-0.08,0.26-0.208,0.465-0.272c0.206-0.08,0.459-0.125,0.726-0.125
			c0.268-0.027,0.547,0.017,0.826,0.037c0.275,0.056,0.549,0.112,0.791,0.224c0.237,0.086,0.482,0.211,0.674,0.349
			c0.215,0.129,0.271,0.227,0.362,0.301c0.073,0.075,0.116,0.119,0.116,0.119c0.195,0.2,0.192,0.521-0.008,0.717
			C16.926,2.34,16.691,2.37,16.504,2.28z"/>
	</g>
</g>
</svg>
