<?xml version="1.0" encoding="utf-8"?>
<!-- Generator: Adobe Illustrator 16.0.4, SVG Export Plug-In . SVG Version: 6.00 Build 0)  -->
<!DOCTYPE svg PUBLIC "-//W3C//DTD SVG 1.1//EN" "http://www.w3.org/Graphics/SVG/1.1/DTD/svg11.dtd">
<svg version="1.1" xmlns="http://www.w3.org/2000/svg" xmlns:xlink="http://www.w3.org/1999/xlink" x="0px" y="0px" width="22px"
	 height="20px" viewBox="0 0 22 20" style="enable-background:new 0 0 22 20;" xml:space="preserve">
<g id="head">
	<path style="fill:#F7B23F;" d="M11,1C5.444,1,1,4.375,1,10c0,5.625,4.444,9,10,9c5.555,0,10-3.375,10-9C21,4.375,16.555,1,11,1z"/>
</g>
<g id="plain_eyes">
	
		<ellipse transform="matrix(0.7071 0.7071 -0.7071 0.7071 8.8812 -8.4411)" style="fill:#231F20;" cx="14.63" cy="6.5" rx="1.75" ry="1.501"/>
	
		<ellipse transform="matrix(-0.7072 0.707 -0.707 -0.7072 17.1782 5.8855)" style="fill:#231F20;" cx="7.37" cy="6.5" rx="1.75" ry="1.499"/>
</g>
<g id="tongue_mouth_copy">
	<path style="fill:#D63F37;" d="M8,13.75V15c0,1.658,1.344,3,3,3c1.657,0,3-1.342,3-3v-1.25H8z"/>
	<g>
		<path style="fill:#231F20;" d="M7.172,12.353c0,0,0.091,0.107,0.251,0.296c0.08,0.082,0.165,0.134,0.268,0.228
			c0.108,0.087,0.272,0.174,0.435,0.27c0.356,0.154,0.786,0.343,1.288,0.427c0.49,0.106,1.051,0.142,1.577,0.164
			c0.574-0.022,1.104-0.058,1.597-0.164c0.502-0.084,0.932-0.272,1.287-0.427c0.346-0.179,0.581-0.379,0.729-0.52
			c0.124-0.153,0.194-0.24,0.194-0.24l0.048-0.059c0.176-0.217,0.494-0.25,0.71-0.074c0.217,0.176,0.25,0.494,0.074,0.71
			c-0.021,0.026-0.046,0.051-0.07,0.071c0,0-0.132,0.108-0.361,0.298c-0.233,0.173-0.59,0.356-1.014,0.529
			c-0.431,0.15-0.938,0.283-1.48,0.36c-0.543,0.099-1.143,0.118-1.693,0.122c-0.599-0.005-1.166-0.024-1.713-0.122
			c-0.543-0.077-1.05-0.21-1.48-0.36c-0.211-0.101-0.405-0.166-0.584-0.265c-0.175-0.105-0.351-0.207-0.455-0.287
			c-0.194-0.154-0.305-0.242-0.305-0.242c-0.217-0.172-0.254-0.488-0.081-0.706c0.172-0.217,0.489-0.254,0.706-0.081
			C7.124,12.301,7.151,12.328,7.172,12.353z"/>
	</g>
</g>
</svg>
