<?xml version="1.0" encoding="utf-8"?>
<!-- Generator: Adobe Illustrator 16.0.4, SVG Export Plug-In . SVG Version: 6.00 Build 0)  -->
<!DOCTYPE svg PUBLIC "-//W3C//DTD SVG 1.1//EN" "http://www.w3.org/Graphics/SVG/1.1/DTD/svg11.dtd">
<svg version="1.1" xmlns="http://www.w3.org/2000/svg" xmlns:xlink="http://www.w3.org/1999/xlink" x="0px" y="0px" width="22px"
	 height="20px" viewBox="0 0 22 20" style="enable-background:new 0 0 22 20;" xml:space="preserve">
<g id="head">
	<path style="fill:#F7B23F;" d="M11,1C5.444,1,1,4.375,1,10c0,5.625,4.444,9,10,9c5.555,0,10-3.375,10-9C21,4.375,16.555,1,11,1z"/>
</g>
<g id="plain_eyes">
	
		<ellipse transform="matrix(0.7071 0.7071 -0.7071 0.7071 8.8812 -8.4411)" style="fill:#231F20;" cx="14.63" cy="6.5" rx="1.75" ry="1.501"/>
	
		<ellipse transform="matrix(-0.7072 0.707 -0.707 -0.7072 17.1782 5.8855)" style="fill:#231F20;" cx="7.37" cy="6.5" rx="1.75" ry="1.499"/>
</g>
<g id="uneasy_mouth">
	<path style="fill:#231F20;" d="M5.582,14.205c-0.357,0-0.673-0.256-0.738-0.62c-0.072-0.407,0.201-0.797,0.608-0.868l10.833-1.911
		c0.41-0.07,0.797,0.201,0.868,0.608c0.072,0.408-0.2,0.797-0.608,0.869l-10.833,1.91C5.669,14.201,5.625,14.205,5.582,14.205z"/>
</g>
</svg>
