<?xml version="1.0" encoding="utf-8"?>
<!-- Generator: Adobe Illustrator 16.0.4, SVG Export Plug-In . SVG Version: 6.00 Build 0)  -->
<!DOCTYPE svg PUBLIC "-//W3C//DTD SVG 1.1//EN" "http://www.w3.org/Graphics/SVG/1.1/DTD/svg11.dtd">
<svg version="1.1" xmlns="http://www.w3.org/2000/svg" xmlns:xlink="http://www.w3.org/1999/xlink" x="0px" y="0px" width="22px"
	 height="20px" viewBox="0 0 22 20" style="enable-background:new 0 0 22 20;" xml:space="preserve">
<g id="head">
	<path style="fill:#F7B23F;" d="M11,1C5.444,1,1,4.375,1,10c0,5.625,4.444,9,10,9c5.555,0,10-3.375,10-9C21,4.375,16.555,1,11,1z"/>
</g>
<g id="new_wink">
	
		<ellipse transform="matrix(0.7071 0.7071 -0.7071 0.7071 8.8812 -8.4411)" style="fill:#231F20;" cx="14.63" cy="6.5" rx="1.75" ry="1.501"/>
	<path style="fill:#231F20;" d="M9.095,6.967c0,0-0.067-0.02-0.178-0.063c-0.098-0.03-0.296-0.14-0.429-0.152
		c-0.142-0.04-0.302-0.073-0.507-0.104c-0.19-0.061-0.405-0.035-0.61-0.055L7.033,6.61c-0.15-0.001-0.224,0.027-0.305,0.046
		C6.57,6.677,6.382,6.715,6.223,6.769c-0.164,0.034-0.29,0.1-0.388,0.129C5.738,6.931,5.677,6.945,5.677,6.945L5.568,6.972
		C5.297,7.037,5.026,6.87,4.961,6.6c-0.04-0.166,0.01-0.334,0.115-0.453c0,0,0.052-0.058,0.152-0.151
		c0.108-0.08,0.234-0.25,0.45-0.354C5.884,5.526,6.123,5.371,6.46,5.294c0.162-0.045,0.337-0.09,0.452-0.096l0.458-0.052
		c0.325,0.041,0.653,0.05,0.942,0.155c0.291,0.066,0.557,0.228,0.78,0.356C9.34,5.784,9.394,5.91,9.502,5.989
		c0.086,0.083,0.132,0.135,0.132,0.135C9.822,6.342,9.799,6.671,9.582,6.86C9.444,6.979,9.258,7.013,9.095,6.967z"/>
</g>
<g id="plain_smile">
	<path style="fill:#231F20;" d="M11,14.734c-2.774,0-5.069-1.064-6.139-2.849c-0.213-0.355-0.098-0.816,0.257-1.029
		c0.354-0.213,0.815-0.098,1.029,0.257c0.796,1.327,2.61,2.12,4.853,2.12c2.242,0,4.057-0.793,4.853-2.12
		c0.213-0.355,0.672-0.472,1.029-0.257c0.355,0.213,0.471,0.674,0.258,1.029C16.069,13.67,13.774,14.734,11,14.734z"/>
</g>
</svg>
