<?xml version="1.0" encoding="utf-8"?>
<!-- Generator: Adobe Illustrator 16.0.4, SVG Export Plug-In . SVG Version: 6.00 Build 0)  -->
<!DOCTYPE svg PUBLIC "-//W3C//DTD SVG 1.1//EN" "http://www.w3.org/Graphics/SVG/1.1/DTD/svg11.dtd">
<svg version="1.1" id="wordpress" xmlns="http://www.w3.org/2000/svg" xmlns:xlink="http://www.w3.org/1999/xlink" x="0px" y="0px"
	 width="22px" height="20px" viewBox="0 0 22 20" style="enable-background:new 0 0 22 20;" xml:space="preserve">
<path style="fill:#038FBC;" d="M11,1c-4.962,0-9,4.038-9,9c0,4.964,4.037,9,9,9c4.961,0,9-4.036,9-9C20,5.038,15.961,1,11,1z
	 M2.908,10c0-1.173,0.251-2.287,0.701-3.293l3.859,10.574C4.769,15.97,2.908,13.203,2.908,10z M11,18.093
	c-0.794,0-1.561-0.116-2.286-0.33l2.428-7.055l2.487,6.814c0.017,0.039,0.036,0.076,0.059,0.111
	C12.846,17.93,11.942,18.093,11,18.093z M12.114,6.206c0.487-0.025,0.927-0.077,0.927-0.077c0.436-0.052,0.385-0.692-0.053-0.667
	c0,0-1.31,0.104-2.156,0.104c-0.795,0-2.131-0.104-2.131-0.104C8.265,5.437,8.214,6.103,8.65,6.129c0,0,0.413,0.052,0.849,0.077
	l1.261,3.454l-1.771,5.311L6.042,6.206C6.53,6.181,6.968,6.129,6.968,6.129c0.436-0.052,0.385-0.692-0.051-0.667
	c0,0-1.311,0.104-2.157,0.104c-0.151,0-0.331-0.004-0.521-0.01C5.686,3.359,8.173,1.908,11,1.908c2.107,0,4.025,0.805,5.464,2.125
	c-0.034-0.002-0.069-0.006-0.104-0.006C15.563,4.026,15,4.718,15,5.462c0,0.667,0.386,1.231,0.795,1.898
	c0.307,0.539,0.668,1.232,0.668,2.231c0,0.693-0.206,1.564-0.615,2.616l-0.809,2.697L12.114,6.206z M15.067,16.994l2.472-7.146
	C18,8.694,18.154,7.771,18.154,6.95c0-0.298-0.02-0.575-0.054-0.832c0.632,1.152,0.991,2.475,0.991,3.882
	C19.092,12.984,17.473,15.592,15.067,16.994z"/>
</svg>
